<svg width="14" height="18" viewBox="0 0 14 18" fill="none" xmlns="http://www.w3.org/2000/svg">
<path d="M7.00065 17.3342C10.864 17.3342 13.6673 14.4442 13.6673 10.4625C13.6673 5.26919 7.73565 1.00086 7.48315 0.821688C7.34243 0.72183 7.17417 0.668118 7.00162 0.667969C6.82906 0.66782 6.66072 0.72124 6.51982 0.820855C6.26732 0.998355 0.333984 5.25336 0.333984 10.4592C0.333984 14.4425 3.13732 17.3342 7.00065 17.3342ZM6.99982 2.55086C8.33732 3.62586 12.0007 6.89585 12.0007 10.4625C12.0007 13.5275 9.94398 15.6675 7.00065 15.6675C4.05732 15.6675 2.00065 13.5259 2.00065 10.4592C2.00065 6.88419 5.66232 3.62336 6.99982 2.55086Z" fill="white"/>
</svg>
