<svg xmlns="http://www.w3.org/2000/svg" width="16" height="16" viewBox="0 0 16 16" fill="none">
    <mask id="mask0_18504_49938" style="mask-type:alpha" maskUnits="userSpaceOnUse" x="0" y="0" width="16" height="16">
        <rect width="16" height="16" fill="#D9D9D9"/>
    </mask>
    <g mask="url(#mask0_18504_49938)">
        <path d="M5.33073 7.9987V6.66536H10.6641V7.9987H5.33073ZM5.33073 5.33203V3.9987H10.6641V5.33203H5.33073ZM3.9974 9.33203H8.9974C9.31962 9.33203 9.61962 9.40148 9.8974 9.54037C10.1752 9.67925 10.4085 9.87648 10.5974 10.132L11.9974 11.9654V2.66536H3.9974V9.33203ZM3.9974 13.332H11.3641L9.5474 10.9487C9.48073 10.8598 9.40017 10.7904 9.30573 10.7404C9.21128 10.6904 9.10851 10.6654 8.9974 10.6654H3.9974V13.332ZM11.9974 14.6654H3.9974C3.63073 14.6654 3.31684 14.5348 3.05573 14.2737C2.79462 14.0126 2.66406 13.6987 2.66406 13.332V2.66536C2.66406 2.2987 2.79462 1.98481 3.05573 1.7237C3.31684 1.46259 3.63073 1.33203 3.9974 1.33203H11.9974C12.3641 1.33203 12.678 1.46259 12.9391 1.7237C13.2002 1.98481 13.3307 2.2987 13.3307 2.66536V13.332C13.3307 13.6987 13.2002 14.0126 12.9391 14.2737C12.678 14.5348 12.3641 14.6654 11.9974 14.6654Z" fill="white"/>
    </g>
</svg>