<svg width="169" height="46" viewBox="0 0 169 46" fill="none" xmlns="http://www.w3.org/2000/svg">
<rect width="169" height="46" rx="23" fill="#3ECAE3"/>
<path d="M39.891 29.8654C39.891 30.4318 39.4318 30.8909 38.8654 30.8909C38.299 30.8909 37.8398 30.4318 37.8398 29.8654C37.8398 29.299 38.299 28.8398 38.8654 28.8398C39.4318 28.8398 39.891 29.299 39.891 29.8654Z" fill="white" stroke="white"/>
<path d="M49.0433 29.8654C49.0433 30.4318 48.5841 30.8909 48.0177 30.8909C47.4513 30.8909 46.9922 30.4318 46.9922 29.8654C46.9922 29.299 47.4513 28.8398 48.0177 28.8398C48.5841 28.8398 49.0433 29.299 49.0433 29.8654Z" fill="white" stroke="white"/>
<path d="M52 18.4233H36.4394L36.0458 16.4492C35.8322 15.3844 34.8863 14.6094 33.8002 14.6094H32V16.1349H33.8002C34.1632 16.1349 34.4775 16.3943 34.5477 16.7482L36.1007 24.5102C36.4546 26.286 38.029 27.5766 39.8413 27.5766H47.042C48.8543 27.5766 50.4256 26.286 50.7826 24.5102L52 18.4233ZM47.042 26.051H39.8413C38.7551 26.051 37.8093 25.276 37.5988 24.2112L37.1777 22.1029L36.7445 19.9488H50.1388L49.7086 22.1029L49.2876 24.2112C49.074 25.276 48.1281 26.051 47.042 26.051Z" fill="white"/>
<path d="M67.9679 26.296L68.8959 29H70.8319L66.6399 17.56H64.6399L60.4319 29H62.3679L63.2959 26.296H67.9679ZM63.8239 24.712L65.6319 19.304H65.6639L67.4559 24.712H63.8239ZM77.2081 17.56V21.816H77.1761C76.7441 21.192 75.9441 20.6 74.6801 20.6C72.5841 20.6 71.0321 22.232 71.0321 24.92C71.0321 27.608 72.5841 29.24 74.6801 29.24C75.9441 29.24 76.7441 28.616 77.1761 28.056H77.2081V29H78.8881V17.56H77.2081ZM74.9681 27.864C73.4961 27.864 72.7121 26.52 72.7121 24.92C72.7121 23.32 73.4961 21.976 74.9681 21.976C76.3441 21.976 77.1921 23.096 77.1921 24.92C77.1921 26.728 76.3441 27.864 74.9681 27.864ZM86.2393 17.56V21.816H86.2073C85.7753 21.192 84.9753 20.6 83.7113 20.6C81.6153 20.6 80.0633 22.232 80.0633 24.92C80.0633 27.608 81.6153 29.24 83.7113 29.24C84.9753 29.24 85.7753 28.616 86.2073 28.056H86.2393V29H87.9193V17.56H86.2393ZM83.9993 27.864C82.5273 27.864 81.7433 26.52 81.7433 24.92C81.7433 23.32 82.5273 21.976 83.9993 21.976C85.3753 21.976 86.2233 23.096 86.2233 24.92C86.2233 26.728 85.3753 27.864 83.9993 27.864ZM96.4774 22.2V20.824H94.9414V18.248H93.2454V20.824H92.0614V22.2H93.2454V26.776C93.2454 28.504 93.9814 29.112 95.3254 29.112C95.7734 29.112 96.1414 29.064 96.4774 28.984V27.608C95.3894 27.672 94.9414 27.56 94.9414 26.632V22.2H96.4774ZM101.3 29.24C98.7403 29.24 97.1883 27.464 97.1883 24.92C97.1883 22.376 98.7403 20.6 101.3 20.6C103.86 20.6 105.412 22.376 105.412 24.92C105.412 27.464 103.86 29.24 101.3 29.24ZM101.3 27.864C102.9 27.864 103.732 26.6 103.732 24.92C103.732 23.224 102.9 21.976 101.3 21.976C99.7003 21.976 98.8683 23.224 98.8683 24.92C98.8683 26.6 99.7003 27.864 101.3 27.864ZM115.252 23.816H116.932C116.724 21.96 115.332 20.6 113.204 20.6C110.772 20.6 109.188 22.36 109.188 24.92C109.188 27.48 110.772 29.24 113.22 29.24C115.348 29.24 116.804 27.848 116.932 25.96H115.252C115.188 26.872 114.66 27.864 113.22 27.864C111.556 27.864 110.868 26.456 110.868 24.92C110.868 23.384 111.572 21.976 113.22 21.976C114.66 21.976 115.188 22.984 115.252 23.816ZM123.142 22.968C123.142 23.752 122.374 23.912 121.11 24.152C119.062 24.552 117.734 25.112 117.734 26.904C117.734 28.28 118.758 29.24 120.422 29.24C121.686 29.24 122.614 28.744 123.126 28.024H123.158C123.318 28.824 123.734 29.144 124.63 29.144C124.95 29.144 125.222 29.112 125.606 28.968V28.168C124.95 28.232 124.822 27.928 124.822 27.352V23.464C124.822 21.288 123.478 20.6 121.67 20.6C119.206 20.6 118.198 21.832 118.118 23.4H119.75C119.83 22.344 120.326 21.928 121.67 21.928C122.79 21.928 123.142 22.376 123.142 22.968ZM120.79 27.912C119.878 27.912 119.43 27.496 119.43 26.744C119.43 25.912 120.038 25.512 121.43 25.208C122.214 25.048 122.87 24.856 123.142 24.664V25.896C123.142 27.224 122.182 27.912 120.79 27.912ZM130.477 20.632C129.405 20.632 128.733 21.336 128.301 22.36H128.269V20.824H126.589V29H128.269V24.824C128.269 23.08 129.565 21.992 131.181 22.264H131.213V20.68C130.973 20.648 130.765 20.632 130.477 20.632ZM136.243 22.2V20.824H134.707V18.248H133.011V20.824H131.827V22.2H133.011V26.776C133.011 28.504 133.747 29.112 135.091 29.112C135.539 29.112 135.907 29.064 136.243 28.984V27.608C135.155 27.672 134.707 27.56 134.707 26.632V22.2H136.243Z" fill="white"/>
</svg>
