<svg width="20" height="20" viewBox="0 0 20 20" fill="none" xmlns="http://www.w3.org/2000/svg">
<path d="M15.8333 3.33464H14.1667V1.66797H12.5V3.33464H7.5V1.66797H5.83333V3.33464H4.16667C3.2475 3.33464 2.5 4.08214 2.5 5.0013V16.668C2.5 17.5871 3.2475 18.3346 4.16667 18.3346H15.8333C16.7525 18.3346 17.5 17.5871 17.5 16.668V5.0013C17.5 4.08214 16.7525 3.33464 15.8333 3.33464ZM15.835 16.668H4.16667V6.66797H15.8333L15.835 16.668Z" fill="white"/>
<path d="M9.16729 14.5123L13.9231 9.75646L12.7448 8.57812L9.16729 12.1556L7.25646 10.2448L6.07812 11.4231L9.16729 14.5123Z" fill="white"/>
</svg>
