<svg width="20" height="20" viewBox="0 0 20 20" fill="none" xmlns="http://www.w3.org/2000/svg">
<path d="M9.9974 1.66602C5.4024 1.66602 1.66406 5.40435 1.66406 9.99935C1.66406 14.5943 5.4024 18.3327 9.9974 18.3327C14.5924 18.3327 18.3307 14.5943 18.3307 9.99935C18.3307 5.40435 14.5924 1.66602 9.9974 1.66602ZM9.9974 16.666C6.32156 16.666 3.33073 13.6752 3.33073 9.99935C3.33073 6.32352 6.32156 3.33268 9.9974 3.33268C13.6732 3.33268 16.6641 6.32352 16.6641 9.99935C16.6641 13.6752 13.6732 16.666 9.9974 16.666Z" fill="#74788D"/>
<path d="M8.33469 11.3218L6.41885 9.40932L5.24219 10.5893L8.33635 13.6768L13.9247 8.08849L12.7464 6.91016L8.33469 11.3218Z" fill="#74788D"/>
</svg>
