<svg width="20" height="20" viewBox="0 0 20 20" fill="none" xmlns="http://www.w3.org/2000/svg">
<path d="M9.99935 17.5008C8.37435 17.5008 6.99588 16.9348 5.86393 15.8028C4.73199 14.6709 4.16602 13.2924 4.16602 11.6674C4.16602 10.3619 4.55143 9.19174 5.32227 8.15701C6.0931 7.12229 7.10352 6.42437 8.35352 6.06326C8.07574 5.99382 7.8049 5.89312 7.54102 5.76118C7.27713 5.62924 7.04102 5.4591 6.83268 5.25076C6.37435 4.79243 6.07921 4.24729 5.94727 3.61535C5.81532 2.9834 5.78407 2.34104 5.85352 1.68826C6.50629 1.61882 7.14865 1.65007 7.7806 1.78201C8.41254 1.91396 8.95768 2.2091 9.41602 2.66743C9.73546 2.98687 9.9681 3.34799 10.1139 3.75076C10.2598 4.15354 10.3535 4.57715 10.3952 5.0216C10.5757 4.59104 10.7945 4.18479 11.0514 3.80285C11.3084 3.4209 11.5966 3.07021 11.916 2.75076C12.0688 2.59799 12.2632 2.5216 12.4993 2.5216C12.7355 2.5216 12.9299 2.59799 13.0827 2.75076C13.2355 2.90354 13.3118 3.09799 13.3118 3.3341C13.3118 3.57021 13.2355 3.76465 13.0827 3.91743C12.7771 4.22299 12.5063 4.55979 12.2702 4.92785C12.0341 5.2959 11.8605 5.68826 11.7493 6.10493C12.9716 6.49382 13.9577 7.19868 14.7077 8.21951C15.4577 9.24035 15.8327 10.3897 15.8327 11.6674C15.8327 13.2924 15.2667 14.6709 14.1348 15.8028C13.0028 16.9348 11.6243 17.5008 9.99935 17.5008ZM9.99935 15.8341C11.1521 15.8341 12.1348 15.4278 12.9473 14.6153C13.7598 13.8028 14.166 12.8202 14.166 11.6674C14.166 10.5147 13.7598 9.53201 12.9473 8.71951C12.1348 7.90701 11.1521 7.50076 9.99935 7.50076C8.84657 7.50076 7.86393 7.90701 7.05143 8.71951C6.23893 9.53201 5.83268 10.5147 5.83268 11.6674C5.83268 12.8202 6.23893 13.8028 7.05143 14.6153C7.86393 15.4278 8.84657 15.8341 9.99935 15.8341Z" fill="white"/>
</svg>
