<svg width="20" height="20" viewBox="0 0 20 20" fill="none" xmlns="http://www.w3.org/2000/svg">
<path d="M2.5 14.1663V12.4997H14.1667V14.1663H2.5ZM2.5 10.833V9.16634H14.1667V10.833H2.5ZM2.5 7.49967V5.83301H14.1667V7.49967H2.5ZM16.6667 14.1663C16.4306 14.1663 16.2326 14.0865 16.0729 13.9268C15.9132 13.767 15.8333 13.5691 15.8333 13.333C15.8333 13.0969 15.9132 12.899 16.0729 12.7393C16.2326 12.5795 16.4306 12.4997 16.6667 12.4997C16.9028 12.4997 17.1007 12.5795 17.2604 12.7393C17.4201 12.899 17.5 13.0969 17.5 13.333C17.5 13.5691 17.4201 13.767 17.2604 13.9268C17.1007 14.0865 16.9028 14.1663 16.6667 14.1663ZM16.6667 10.833C16.4306 10.833 16.2326 10.7531 16.0729 10.5934C15.9132 10.4337 15.8333 10.2358 15.8333 9.99967C15.8333 9.76356 15.9132 9.56565 16.0729 9.40592C16.2326 9.2462 16.4306 9.16634 16.6667 9.16634C16.9028 9.16634 17.1007 9.2462 17.2604 9.40592C17.4201 9.56565 17.5 9.76356 17.5 9.99967C17.5 10.2358 17.4201 10.4337 17.2604 10.5934C17.1007 10.7531 16.9028 10.833 16.6667 10.833ZM16.6667 7.49967C16.4306 7.49967 16.2326 7.41981 16.0729 7.26009C15.9132 7.10037 15.8333 6.90245 15.8333 6.66634C15.8333 6.43023 15.9132 6.23231 16.0729 6.07259C16.2326 5.91287 16.4306 5.83301 16.6667 5.83301C16.9028 5.83301 17.1007 5.91287 17.2604 6.07259C17.4201 6.23231 17.5 6.43023 17.5 6.66634C17.5 6.90245 17.4201 7.10037 17.2604 7.26009C17.1007 7.41981 16.9028 7.49967 16.6667 7.49967Z" fill="#74788D"/>
</svg>
