<svg width="20" height="20" viewBox="0 0 20 20" fill="none" xmlns="http://www.w3.org/2000/svg">
<mask id="mask0_14650_10983" style="mask-type:alpha" maskUnits="userSpaceOnUse" x="0" y="0" width="20" height="20">
<rect width="20" height="20" fill="currentColor"/>
</mask>
<g mask="url(#mask0_14650_10983)">
<path d="M13.3332 18.3337C11.9443 18.3337 10.7637 17.8475 9.7915 16.8753C8.81928 15.9031 8.33317 14.7225 8.33317 13.3337C8.33317 11.9448 8.81928 10.7642 9.7915 9.79199C10.7637 8.81977 11.9443 8.33366 13.3332 8.33366C14.7221 8.33366 15.9026 8.81977 16.8748 9.79199C17.8471 10.7642 18.3332 11.9448 18.3332 13.3337C18.3332 14.7225 17.8471 15.9031 16.8748 16.8753C15.9026 17.8475 14.7221 18.3337 13.3332 18.3337ZM13.3332 16.667C14.2498 16.667 15.0346 16.3406 15.6873 15.6878C16.3401 15.035 16.6665 14.2503 16.6665 13.3337C16.6665 12.417 16.3401 11.6323 15.6873 10.9795C15.0346 10.3267 14.2498 10.0003 13.3332 10.0003C12.4165 10.0003 11.6318 10.3267 10.979 10.9795C10.3262 11.6323 9.99984 12.417 9.99984 13.3337C9.99984 14.2503 10.3262 15.035 10.979 15.6878C11.6318 16.3406 12.4165 16.667 13.3332 16.667ZM3.33317 16.667C2.87484 16.667 2.48248 16.5038 2.15609 16.1774C1.8297 15.851 1.6665 15.4587 1.6665 15.0003V8.66699C1.6665 8.55588 1.67692 8.44477 1.69775 8.33366C1.71859 8.22255 1.74984 8.11144 1.7915 8.00033L3.45817 4.16699H3.33317C3.09706 4.16699 2.89914 4.08713 2.73942 3.92741C2.5797 3.76769 2.49984 3.56977 2.49984 3.33366V2.50033C2.49984 2.26421 2.5797 2.0663 2.73942 1.90658C2.89914 1.74685 3.09706 1.66699 3.33317 1.66699H9.1665C9.40262 1.66699 9.60053 1.74685 9.76025 1.90658C9.91998 2.0663 9.99984 2.26421 9.99984 2.50033V3.33366C9.99984 3.56977 9.91998 3.76769 9.76025 3.92741C9.60053 4.08713 9.40262 4.16699 9.1665 4.16699H9.0415L10.4165 7.33366C10.1526 7.47255 9.90262 7.61838 9.6665 7.77116C9.43039 7.92394 9.20817 8.09755 8.99984 8.29199L7.24984 4.16699H5.24984L3.33317 8.66699V15.0003H6.87484C6.94428 15.292 7.03803 15.5802 7.15609 15.8649C7.27414 16.1496 7.4165 16.417 7.58317 16.667H3.33317ZM13.3332 7.50033C12.7498 7.50033 12.2568 7.29894 11.854 6.89616C11.4512 6.49338 11.2498 6.00033 11.2498 5.41699C11.2498 4.83366 11.4512 4.3406 11.854 3.93783C12.2568 3.53505 12.7498 3.33366 13.3332 3.33366V7.50033C13.3332 6.91699 13.5346 6.42394 13.9373 6.02116C14.3401 5.61838 14.8332 5.41699 15.4165 5.41699C15.9998 5.41699 16.4929 5.61838 16.8957 6.02116C17.2984 6.42394 17.4998 6.91699 17.4998 7.50033H13.3332Z" fill="currentColor"/>
</g>
</svg>
