<svg width="16" height="16" viewBox="0 0 16 16" fill="none" xmlns="http://www.w3.org/2000/svg">
<path d="M8.0026 1.33203C4.3266 1.33203 1.33594 4.3227 1.33594 7.9987C1.33594 11.6747 4.3266 14.6654 8.0026 14.6654C11.6786 14.6654 14.6693 11.6747 14.6693 7.9987C14.6693 4.3227 11.6786 1.33203 8.0026 1.33203ZM8.0026 13.332C5.06194 13.332 2.66927 10.9394 2.66927 7.9987C2.66927 5.05803 5.06194 2.66536 8.0026 2.66536C10.9433 2.66536 13.3359 5.05803 13.3359 7.9987C13.3359 10.9394 10.9433 13.332 8.0026 13.332Z" fill="#495057"/>
<path d="M6.6615 9.05668L5.12883 7.52668L4.1875 8.47068L6.66283 10.9407L11.1335 6.47001L10.1908 5.52734L6.6615 9.05668Z" fill="#495057"/>
</svg>
