<svg width="20" height="20" viewBox="0 0 20 20" fill="none" xmlns="http://www.w3.org/2000/svg">
<path d="M2.50016 18.3337C2.04183 18.3337 1.64947 18.1705 1.32308 17.8441C0.996691 17.5177 0.833496 17.1253 0.833496 16.667V5.00033C0.833496 4.54199 0.996691 4.14963 1.32308 3.82324C1.64947 3.49685 2.04183 3.33366 2.50016 3.33366H9.16683V5.00033H2.50016V16.667H14.1668V11.667H15.8335V16.667C15.8335 17.1253 15.6703 17.5177 15.3439 17.8441C15.0175 18.1705 14.6252 18.3337 14.1668 18.3337H2.50016ZM4.16683 15.0003H5.8335V9.16699H4.16683V15.0003ZM7.50016 15.0003H9.16683V6.66699H7.50016V15.0003ZM10.8335 15.0003H12.5002V11.667H10.8335V15.0003ZM15.0002 10.0003C14.5835 10.0003 14.1738 9.93783 13.771 9.81283C13.3682 9.68783 12.9932 9.50727 12.646 9.27116L12.3335 9.56283C12.1668 9.7156 11.9689 9.79199 11.7397 9.79199C11.5106 9.79199 11.3196 9.7156 11.1668 9.56283C11.0141 9.41005 10.9377 9.2156 10.9377 8.97949C10.9377 8.74338 11.0141 8.54894 11.1668 8.39616L11.5002 8.06283C11.2779 7.72949 11.1113 7.37533 11.0002 7.00033C10.8891 6.62533 10.8335 6.23644 10.8335 5.83366C10.8335 4.68088 11.2397 3.69824 12.0522 2.88574C12.8647 2.07324 13.8474 1.66699 15.0002 1.66699H19.1668V5.83366C19.1668 6.98644 18.7606 7.96908 17.9481 8.78158C17.1356 9.59408 16.1529 10.0003 15.0002 10.0003ZM15.0002 8.33366C15.6946 8.33366 16.2849 8.0906 16.771 7.60449C17.2571 7.11838 17.5002 6.5281 17.5002 5.83366V3.33366H15.0002C14.3057 3.33366 13.7154 3.57671 13.2293 4.06283C12.7432 4.54894 12.5002 5.13921 12.5002 5.83366C12.5002 6.01421 12.5175 6.18783 12.5522 6.35449C12.587 6.52116 12.6391 6.68783 12.7085 6.85449L14.8752 4.68783C15.0279 4.53505 15.2224 4.45866 15.4585 4.45866C15.6946 4.45866 15.8891 4.53505 16.0418 4.68783C16.2085 4.85449 16.2918 5.05241 16.2918 5.28158C16.2918 5.51074 16.2085 5.70866 16.0418 5.87533L13.8752 8.04199C14.0557 8.12533 14.2397 8.19477 14.4272 8.25033C14.6147 8.30588 14.8057 8.33366 15.0002 8.33366Z" fill="#74788D"/>
</svg>
