<svg width="16" height="16" viewBox="0 0 16 16" fill="none" xmlns="http://www.w3.org/2000/svg">
<path d="M6.66927 11.9987C7.85259 11.9985 9.00181 11.6023 9.93394 10.8734L12.8646 13.804L13.8073 12.8614L10.8766 9.9307C11.6059 8.99847 12.0023 7.84899 12.0026 6.66536C12.0026 3.7247 9.60994 1.33203 6.66927 1.33203C3.7286 1.33203 1.33594 3.7247 1.33594 6.66536C1.33594 9.60603 3.7286 11.9987 6.66927 11.9987ZM6.66927 2.66536C8.87527 2.66536 10.6693 4.45936 10.6693 6.66536C10.6693 8.87136 8.87527 10.6654 6.66927 10.6654C4.46327 10.6654 2.66927 8.87136 2.66927 6.66536C2.66927 4.45936 4.46327 2.66536 6.66927 2.66536Z" fill="#74788D"/>
<path d="M7.60658 5.7221C7.85925 5.97544 7.99858 6.3101 7.99858 6.66477H9.33192C9.33251 6.31439 9.26364 5.96737 9.1293 5.64376C8.99496 5.32016 8.79781 5.02639 8.54925 4.77944C7.53992 3.77144 5.78992 3.77144 4.78125 4.77944L5.72258 5.72344C6.22925 5.2181 7.10258 5.21944 7.60658 5.7221Z" fill="#74788D"/>
</svg>
