<svg width="128" height="27" viewBox="0 0 128 27" fill="none" xmlns="http://www.w3.org/2000/svg">
<path d="M43.1019 15.9534C42.6095 16.8862 41.9449 17.598 41.0588 18.1134C40.1972 18.6289 39.2126 18.8989 38.0803 18.8989C36.948 18.8989 35.988 18.6289 35.1019 18.1134C34.2403 17.598 33.5511 16.8616 33.0588 15.9534C32.5665 15.0207 32.3203 13.9898 32.3203 12.8362C32.3203 11.6825 32.5665 10.6271 33.0588 9.71889C33.5511 8.78616 34.2157 8.07435 35.1019 7.55889C35.9634 7.04344 36.9726 6.77344 38.0803 6.77344C39.188 6.77344 40.1726 7.04344 41.0588 7.55889C41.9449 8.07435 42.6095 8.81071 43.1019 9.71889C43.5942 10.6516 43.8403 11.6825 43.8403 12.8362C43.8403 13.9898 43.5942 15.0453 43.1019 15.9534ZM34.4372 15.2662C34.7819 15.978 35.2742 16.5425 35.9142 16.9353C36.5542 17.328 37.268 17.5489 38.1049 17.5489C38.9419 17.5489 39.6557 17.3525 40.2957 16.9353C40.9357 16.5425 41.428 15.978 41.7726 15.2662C42.1172 14.5543 42.3142 13.7443 42.3142 12.8362C42.3142 11.928 42.1419 11.118 41.7726 10.4062C41.4034 9.69435 40.9357 9.1298 40.2957 8.73707C39.6557 8.34435 38.9419 8.12344 38.1049 8.12344C37.268 8.12344 36.5542 8.3198 35.9142 8.73707C35.2742 9.1298 34.7819 9.69435 34.4372 10.4062C34.0926 11.118 33.8957 11.928 33.8957 12.8362C33.8957 13.7443 34.068 14.5543 34.4372 15.2662Z" fill="white"/>
<path d="M52.086 10.5283C52.726 10.8719 53.2183 11.3874 53.5875 12.0746C53.9567 12.7374 54.1291 13.5474 54.1291 14.4801C54.1291 15.4128 53.9567 16.1246 53.5875 16.8119C53.2183 17.4746 52.726 18.0146 52.086 18.3828C51.446 18.751 50.7321 18.9474 49.9198 18.9474C49.206 18.9474 48.6152 18.8246 48.0983 18.5546C47.606 18.3092 47.1875 17.941 46.9167 17.4992V22.261H45.5137V10.0865H46.7198L46.9167 11.4856C47.6552 10.4792 48.6398 9.98828 49.9198 9.98828C50.7321 9.98828 51.446 10.1601 52.086 10.5283ZM51.8891 16.7874C52.4306 16.1983 52.6767 15.4128 52.6767 14.4801C52.6767 13.5474 52.406 12.7619 51.8891 12.1728C51.3475 11.5837 50.6583 11.2646 49.7967 11.2646C49.2306 11.2646 48.7383 11.3874 48.2952 11.6574C47.8521 11.9274 47.5075 12.2956 47.286 12.7865C47.0398 13.2774 46.9167 13.8174 46.9167 14.431C46.9167 15.0446 47.0398 15.6092 47.286 16.1246C47.5321 16.6156 47.8768 17.0083 48.2952 17.2783C48.7383 17.5483 49.2306 17.6956 49.7967 17.6956C50.6583 17.6956 51.3721 17.401 51.8891 16.7874Z" fill="white"/>
<path d="M56.1965 11.3637H54.6211V10.0874H56.1965V7.63281H57.5996V10.0874H59.8149V11.3637H57.5996V16.5183C57.5996 16.8864 57.6734 17.1319 57.8211 17.3037C57.9688 17.451 58.2149 17.5246 58.5596 17.5246H60.0857V18.801H58.4857C57.6734 18.801 57.0826 18.6292 56.738 18.261C56.3934 17.8928 56.2211 17.3283 56.2211 16.5428V11.3883L56.1965 11.3637Z" fill="white"/>
<path d="M62.45 6.97006C62.6223 7.14188 62.6961 7.36279 62.6961 7.60825C62.6961 7.8537 62.6223 8.09915 62.45 8.24643C62.2777 8.41825 62.0561 8.49188 61.81 8.49188C61.5638 8.49188 61.3177 8.3937 61.17 8.24643C60.9977 8.07461 60.9238 7.8537 60.9238 7.60825C60.9238 7.36279 60.9977 7.11734 61.17 6.97006C61.3423 6.82279 61.5638 6.72461 61.81 6.72461C62.0561 6.72461 62.3023 6.82279 62.45 6.97006ZM61.0961 10.0873H62.4992V18.801H61.0961V10.0873Z" fill="white"/>
<path d="M76.5541 10.9219C77.1695 11.5355 77.4649 12.4928 77.4649 13.7937V18.8255H76.0618V13.8919C76.0618 13.0573 75.8895 12.3946 75.5203 11.9528C75.1511 11.5109 74.6587 11.29 73.9941 11.29C73.2557 11.29 72.6895 11.5355 72.2711 12.0509C71.8526 12.5664 71.6557 13.2537 71.6557 14.1619V18.8255H70.2526V13.8919C70.2526 13.0573 70.0803 12.3946 69.7111 11.9528C69.3418 11.5109 68.8249 11.29 68.1603 11.29C67.4464 11.29 66.8803 11.56 66.4618 12.1C66.0434 12.64 65.8464 13.3519 65.8464 14.2355V18.8255H64.4434V10.1119H65.6495L65.8464 11.3146C66.4864 10.4555 67.3234 10.0137 68.4064 10.0137C69.0464 10.0137 69.588 10.1609 70.0803 10.4309C70.5726 10.7009 70.9172 11.1182 71.1634 11.6828C71.8034 10.5782 72.8126 10.0137 74.1911 10.0137C75.1757 10.0137 75.9634 10.3328 76.5787 10.9464L76.5541 10.9219Z" fill="white"/>
<path d="M87.4591 17.5248V18.8012H86.696C86.1299 18.8012 85.736 18.6785 85.4899 18.4576C85.2437 18.2367 85.1206 17.893 85.1206 17.4512C84.456 18.433 83.4714 18.8994 82.1914 18.8994C81.2068 18.8994 80.4437 18.6785 79.8529 18.2121C79.2622 17.7458 78.9668 17.1321 78.9668 16.3467C78.9668 15.463 79.2622 14.8003 79.8776 14.3339C80.4929 13.8676 81.3545 13.6221 82.4868 13.6221H85.0468V13.033C85.0468 12.4685 84.8499 12.0267 84.4806 11.7076C84.0868 11.3885 83.5699 11.2167 82.8806 11.2167C82.2653 11.2167 81.773 11.3394 81.3791 11.6094C80.9853 11.8794 80.7391 12.223 80.6406 12.6894H79.2376C79.336 11.8303 79.7299 11.1676 80.3699 10.6767C81.0345 10.1858 81.8714 9.96484 82.9299 9.96484C84.0622 9.96484 84.9237 10.2348 85.5391 10.7748C86.1545 11.3148 86.4499 12.1003 86.4499 13.1067V16.8621C86.4499 17.2794 86.6468 17.5003 87.0406 17.5003H87.4591V17.5248ZM85.0468 14.8248H82.3391C81.0345 14.8248 80.3945 15.3158 80.3945 16.273C80.3945 16.7148 80.5668 17.0585 80.9114 17.3285C81.256 17.5985 81.7237 17.7212 82.2899 17.7212C83.1514 17.7212 83.816 17.5003 84.3083 17.0339C84.8006 16.5921 85.0468 15.9785 85.0468 15.2421V14.8248Z" fill="white"/>
<path d="M88.541 6.84766H89.9441V18.8013H88.541V6.84766Z" fill="white"/>
<path d="M91.8652 6.84766H93.2683V18.8013H91.8652V6.84766Z" fill="white"/>
<path d="M95.8039 10.0879L98.4869 17.2061L101.096 10.0879H102.598L98.5608 20.2743C98.3639 20.7897 98.1669 21.1824 98.0193 21.4524C97.8469 21.7224 97.65 21.9188 97.4285 22.0415C97.2069 22.1643 96.8623 22.2379 96.4685 22.2379H94.7946V20.9615H96.05C96.3208 20.9615 96.5423 20.937 96.6654 20.8879C96.8131 20.8388 96.9116 20.7406 97.01 20.5933C97.1085 20.4706 97.2069 20.2497 97.33 19.9306L97.7731 18.8752L94.3516 10.0879H95.8531H95.8039Z" fill="white"/>
<path d="M104.098 6.84766H106.658L110.498 16.2731L114.264 6.84766H116.775V18.8013H114.879V9.98947L111.285 18.8013H109.611L106.018 9.98947V18.8013H104.122V6.84766H104.098Z" fill="white"/>
<path d="M118.989 12.0749C119.358 11.3876 119.851 10.8722 120.491 10.504C121.131 10.1358 121.869 9.93945 122.706 9.93945C123.543 9.93945 124.306 10.1113 124.946 10.4549C125.586 10.7985 126.103 11.2895 126.472 11.9031C126.842 12.5413 127.038 13.2531 127.038 14.1122C127.038 14.3331 127.038 14.5785 126.989 14.824H120.368V14.9222C120.417 15.6831 120.663 16.2967 121.082 16.7385C121.525 17.1804 122.091 17.4013 122.805 17.4013C123.371 17.4013 123.863 17.2785 124.257 17.0085C124.651 16.7385 124.897 16.3704 125.02 15.8795H126.866C126.694 16.7631 126.275 17.4995 125.562 18.064C124.848 18.6285 123.986 18.9231 122.928 18.9231C122.017 18.9231 121.205 18.7267 120.54 18.3585C119.851 17.9904 119.334 17.4749 118.965 16.7876C118.595 16.1004 118.398 15.3395 118.398 14.4558C118.398 13.5722 118.571 12.7622 118.94 12.0995L118.989 12.0749ZM125.168 13.474C125.094 12.8358 124.823 12.3449 124.405 11.9767C123.986 11.6085 123.445 11.4367 122.78 11.4367C122.165 11.4367 121.648 11.6331 121.205 12.0013C120.762 12.3695 120.515 12.8604 120.442 13.474H125.168Z" fill="white"/>
<path d="M25.723 15.6109H20.6276C14.7937 15.6109 10.043 10.8736 10.043 5.05636V0H15.6307V5.08091C15.6307 7.83 17.8707 10.0391 20.603 10.0391H25.6984V15.6109H25.723Z" fill="white"/>
<path d="M14.2523 25.6504H11.4708V17.035L8.64 14.2122H0V11.4141H9.79692L14.2523 15.8813V25.6504Z" fill="white"/>
</svg>
