<svg width="20" height="20" viewBox="0 0 20 20" fill="none" xmlns="http://www.w3.org/2000/svg">
<mask id="mask0_17900_12749" style="mask-type:alpha" maskUnits="userSpaceOnUse" x="0" y="0" width="20" height="20">
<rect width="20" height="20" fill="#D9D9D9"/>
</mask>
<g mask="url(#mask0_17900_12749)">
<path d="M0.833496 16.6673V14.334C0.833496 13.8618 0.955024 13.4277 1.19808 13.0319C1.44113 12.6361 1.76405 12.334 2.16683 12.1257C3.02794 11.6951 3.90294 11.3722 4.79183 11.1569C5.68072 10.9416 6.5835 10.834 7.50016 10.834C8.41683 10.834 9.31961 10.9416 10.2085 11.1569C11.0974 11.3722 11.9724 11.6951 12.8335 12.1257C13.2363 12.334 13.5592 12.6361 13.8022 13.0319C14.0453 13.4277 14.1668 13.8618 14.1668 14.334V16.6673H0.833496ZM15.8335 16.6673V14.1673C15.8335 13.5562 15.6634 12.9694 15.3231 12.4069C14.9828 11.8444 14.5002 11.3618 13.8752 10.959C14.5835 11.0423 15.2502 11.1847 15.8752 11.3861C16.5002 11.5875 17.0835 11.834 17.6252 12.1257C18.1252 12.4034 18.5071 12.7125 18.771 13.0527C19.0349 13.393 19.1668 13.7645 19.1668 14.1673V16.6673H15.8335ZM7.50016 10.0007C6.5835 10.0007 5.79877 9.67426 5.146 9.02148C4.49322 8.36871 4.16683 7.58398 4.16683 6.66732C4.16683 5.75065 4.49322 4.96593 5.146 4.31315C5.79877 3.66037 6.5835 3.33398 7.50016 3.33398C8.41683 3.33398 9.20155 3.66037 9.85433 4.31315C10.5071 4.96593 10.8335 5.75065 10.8335 6.66732C10.8335 7.58398 10.5071 8.36871 9.85433 9.02148C9.20155 9.67426 8.41683 10.0007 7.50016 10.0007ZM15.8335 6.66732C15.8335 7.58398 15.5071 8.36871 14.8543 9.02148C14.2016 9.67426 13.4168 10.0007 12.5002 10.0007C12.3474 10.0007 12.1529 9.98329 11.9168 9.94857C11.6807 9.91385 11.4863 9.87565 11.3335 9.83398C11.7085 9.38954 11.9967 8.89648 12.1981 8.35482C12.3995 7.81315 12.5002 7.25065 12.5002 6.66732C12.5002 6.08398 12.3995 5.52148 12.1981 4.97982C11.9967 4.43815 11.7085 3.9451 11.3335 3.50065C11.5279 3.43121 11.7224 3.38607 11.9168 3.36523C12.1113 3.3444 12.3057 3.33398 12.5002 3.33398C13.4168 3.33398 14.2016 3.66037 14.8543 4.31315C15.5071 4.96593 15.8335 5.75065 15.8335 6.66732ZM2.50016 15.0007H12.5002V14.334C12.5002 14.1812 12.462 14.0423 12.3856 13.9173C12.3092 13.7923 12.2085 13.6951 12.0835 13.6257C11.3335 13.2507 10.5766 12.9694 9.81266 12.7819C9.04877 12.5944 8.27794 12.5007 7.50016 12.5007C6.72238 12.5007 5.95155 12.5944 5.18766 12.7819C4.42377 12.9694 3.66683 13.2507 2.91683 13.6257C2.79183 13.6951 2.69113 13.7923 2.61475 13.9173C2.53836 14.0423 2.50016 14.1812 2.50016 14.334V15.0007ZM7.50016 8.33398C7.9585 8.33398 8.35086 8.17079 8.67725 7.8444C9.00363 7.51801 9.16683 7.12565 9.16683 6.66732C9.16683 6.20898 9.00363 5.81662 8.67725 5.49023C8.35086 5.16385 7.9585 5.00065 7.50016 5.00065C7.04183 5.00065 6.64947 5.16385 6.32308 5.49023C5.99669 5.81662 5.8335 6.20898 5.8335 6.66732C5.8335 7.12565 5.99669 7.51801 6.32308 7.8444C6.64947 8.17079 7.04183 8.33398 7.50016 8.33398Z" fill="currentColor"/>
</g>
</svg>
