<svg width="24" height="24" viewBox="0 0 24 24" fill="none" xmlns="http://www.w3.org/2000/svg">
<path d="M12 2C9.35831 2.03369 6.8343 3.09807 4.96618 4.96618C3.09807 6.8343 2.03369 9.35831 2 12C2.01235 13.5389 2.37972 15.0542 3.07351 16.4279C3.7673 17.8016 4.76879 18.9967 6 19.92V20H6.1C7.79318 21.2975 9.86685 22.0006 12 22.0006C14.1332 22.0006 16.2068 21.2975 17.9 20H18V19.92C19.2312 18.9967 20.2327 17.8016 20.9265 16.4279C21.6203 15.0542 21.9877 13.5389 22 12C21.9663 9.35831 20.9019 6.8343 19.0338 4.96618C17.1657 3.09807 14.6417 2.03369 12 2ZM8.07 18.93C8.21599 18.2614 8.58615 17.6629 9.11908 17.2336C9.65202 16.8044 10.3157 16.5702 11 16.57H13C13.6843 16.5702 14.348 16.8044 14.8809 17.2336C15.4138 17.6629 15.784 18.2614 15.93 18.93C14.7389 19.6308 13.382 20.0004 12 20.0004C10.618 20.0004 9.26113 19.6308 8.07 18.93ZM17.61 17.64C17.2296 16.7309 16.5891 15.9546 15.7689 15.4084C14.9487 14.8622 13.9854 14.5705 13 14.57H11C10.0146 14.5705 9.05127 14.8622 8.23108 15.4084C7.41088 15.9546 6.77037 16.7309 6.39 17.64C5.64066 16.903 5.0439 16.0255 4.63381 15.0578C4.22373 14.0901 4.00835 13.051 4 12C4.02594 9.88633 4.87712 7.86653 6.37183 6.37183C7.86653 4.87712 9.88633 4.02594 12 4C14.1137 4.02594 16.1335 4.87712 17.6282 6.37183C19.1229 7.86653 19.9741 9.88633 20 12C19.9916 13.051 19.7763 14.0901 19.3662 15.0578C18.9561 16.0255 18.3593 16.903 17.61 17.64Z" fill="black"/>
<path d="M11.9991 5.99911C11.4705 5.98679 10.9448 6.08184 10.4539 6.2785C9.96305 6.47516 9.51718 6.76934 9.14326 7.14326C8.76934 7.51718 8.47516 7.96305 8.2785 8.45392C8.08184 8.94479 7.98679 9.47045 7.99911 9.99911C7.98679 10.5278 8.08184 11.0534 8.2785 11.5443C8.47516 12.0352 8.76934 12.481 9.14326 12.855C9.51718 13.2289 9.96305 13.5231 10.4539 13.7197C10.9448 13.9164 11.4705 14.0114 11.9991 13.9991C12.5278 14.0114 13.0534 13.9164 13.5443 13.7197C14.0352 13.5231 14.481 13.2289 14.855 12.855C15.2289 12.481 15.5231 12.0352 15.7197 11.5443C15.9164 11.0534 16.0114 10.5278 15.9991 9.99911C16.0114 9.47045 15.9164 8.94479 15.7197 8.45392C15.5231 7.96305 15.2289 7.51718 14.855 7.14326C14.481 6.76934 14.0352 6.47516 13.5443 6.2785C13.0534 6.08184 12.5278 5.98679 11.9991 5.99911ZM11.9991 11.9991C11.7331 12.012 11.4673 11.969 11.2188 11.8731C10.9703 11.7771 10.7447 11.6303 10.5563 11.4419C10.368 11.2536 10.2211 11.0279 10.1251 10.7794C10.0292 10.531 9.98625 10.2652 9.99911 9.99911C9.98625 9.73306 10.0292 9.46726 10.1251 9.21878C10.2211 8.97031 10.368 8.74465 10.5563 8.5563C10.7447 8.36796 10.9703 8.22109 11.2188 8.12513C11.4673 8.02917 11.7331 7.98625 11.9991 7.99911C12.2652 7.98625 12.531 8.02917 12.7794 8.12513C13.0279 8.22109 13.2536 8.36796 13.4419 8.5563C13.6303 8.74465 13.7771 8.97031 13.8731 9.21878C13.969 9.46726 14.012 9.73306 13.9991 9.99911C14.012 10.2652 13.969 10.531 13.8731 10.7794C13.7771 11.0279 13.6303 11.2536 13.4419 11.4419C13.2536 11.6303 13.0279 11.7771 12.7794 11.8731C12.531 11.969 12.2652 12.012 11.9991 11.9991Z" fill="black"/>
</svg>
