<svg width="32" height="32" viewBox="0 0 32 32" fill="none" xmlns="http://www.w3.org/2000/svg">
    <rect width="32" height="32" rx="16" fill="#00B4FF"/>
    <path d="M19.9974 22.6654C20.351 22.6654 20.6902 22.5249 20.9402 22.2748C21.1903 22.0248 21.3307 21.6857 21.3307 21.332V13.332L17.3307 9.33203H11.9974C11.6438 9.33203 11.3046 9.47251 11.0546 9.72256C10.8045 9.9726 10.6641 10.3117 10.6641 10.6654V21.332C10.6641 21.6857 10.8045 22.0248 11.0546 22.2748C11.3046 22.5249 11.6438 22.6654 11.9974 22.6654H19.9974ZM16.6641 10.6654L19.9974 13.9987H16.6641V10.6654ZM12.6641 13.332H14.6641V14.6654H12.6641V13.332ZM12.6641 15.9987H19.3307V17.332H12.6641V15.9987ZM12.6641 18.6654H19.3307V19.9987H12.6641V18.6654Z" fill="white"/>
</svg>
