<svg width="60" height="11" viewBox="0 0 60 11" fill="none" xmlns="http://www.w3.org/2000/svg">
<path d="M7.79022 4.21379C7.79022 4.97931 7.63505 5.65862 7.3247 6.25172C7.01436 6.83793 6.58332 7.29655 6.0316 7.62759C5.47988 7.95862 4.84194 8.12414 4.11781 8.12414C3.40056 8.12414 2.76608 7.95862 2.21436 7.62759C1.66263 7.29655 1.2316 6.83793 0.921254 6.25172C0.617806 5.66552 0.466082 4.98966 0.466082 4.22414C0.466082 3.45172 0.621254 2.77241 0.931599 2.18621C1.24194 1.5931 1.66953 1.13103 2.21436 0.8C2.76608 0.468965 3.40401 0.303448 4.12815 0.303448C4.85229 0.303448 5.48677 0.468965 6.0316 0.8C6.58332 1.13103 7.01436 1.58966 7.3247 2.17586C7.63505 2.76207 7.79022 3.44138 7.79022 4.21379ZM6.40401 4.21379C6.40401 3.67586 6.31091 3.21034 6.1247 2.81724C5.9385 2.42414 5.67643 2.12069 5.3385 1.9069C5.00056 1.68621 4.59712 1.57586 4.12815 1.57586C3.66608 1.57586 3.26263 1.68621 2.91781 1.9069C2.57988 2.12069 2.31781 2.42414 2.1316 2.81724C1.94539 3.21034 1.85229 3.67586 1.85229 4.21379C1.85229 4.75172 1.94539 5.22069 2.1316 5.62069C2.31781 6.01379 2.57988 6.31724 2.91781 6.53103C3.26263 6.74483 3.66608 6.85172 4.12815 6.85172C4.59712 6.85172 5.00056 6.74483 5.3385 6.53103C5.67643 6.31034 5.9385 6.00345 6.1247 5.61034C6.31091 5.21034 6.40401 4.74483 6.40401 4.21379ZM8.84677 10.369V2.88965H10.0157L10.0985 3.66552C10.2502 3.36897 10.4847 3.14138 10.8019 2.98276C11.1192 2.81724 11.4675 2.73448 11.8468 2.73448C12.3364 2.73448 12.7571 2.84483 13.1088 3.06552C13.4675 3.28621 13.7468 3.5931 13.9468 3.98621C14.1468 4.37931 14.2468 4.84483 14.2468 5.38276C14.2468 5.91379 14.1537 6.38621 13.9675 6.8C13.7812 7.21379 13.5088 7.54138 13.1502 7.78276C12.7985 8.01724 12.3675 8.13448 11.8571 8.13448C11.4778 8.13448 11.1295 8.06207 10.8123 7.91724C10.5019 7.77241 10.2675 7.57241 10.1088 7.31724V10.369H8.84677ZM10.1192 5.44483C10.1192 5.74828 10.1778 6.01724 10.295 6.25172C10.4123 6.48621 10.5778 6.67241 10.7916 6.81034C11.0123 6.94138 11.2675 7.0069 11.5571 7.0069C11.8537 7.0069 12.1088 6.94138 12.3226 6.81034C12.5364 6.67241 12.6985 6.48621 12.8088 6.25172C12.9192 6.01724 12.9744 5.74828 12.9744 5.44483C12.9744 5.14138 12.9192 4.87241 12.8088 4.63793C12.6985 4.40345 12.5364 4.22069 12.3226 4.08965C12.1088 3.95172 11.8537 3.88276 11.5571 3.88276C11.2675 3.88276 11.0123 3.94828 10.7916 4.07931C10.5778 4.21034 10.4123 4.3931 10.295 4.62759C10.1778 4.86207 10.1192 5.13448 10.1192 5.44483ZM14.6943 2.88965H17.9218V3.94483H14.6943V2.88965ZM16.9391 8H15.677V1.29655H16.9391V8ZM18.7168 8V2.88965H19.9789V8H18.7168ZM19.3375 1.86552C19.1237 1.86552 18.9409 1.7931 18.7892 1.64828C18.6444 1.49655 18.572 1.31379 18.572 1.1C18.572 0.886207 18.6444 0.706896 18.7892 0.562068C18.9409 0.417241 19.1237 0.344827 19.3375 0.344827C19.5513 0.344827 19.7306 0.417241 19.8754 0.562068C20.0271 0.706896 20.103 0.886207 20.103 1.1C20.103 1.31379 20.0271 1.49655 19.8754 1.64828C19.7306 1.7931 19.5513 1.86552 19.3375 1.86552ZM22.5449 8H21.2828V2.88965H22.4414L22.5966 3.8L22.4517 3.67586C22.5552 3.42759 22.7449 3.21034 23.0207 3.02414C23.2966 2.83103 23.6414 2.73448 24.0552 2.73448C24.5035 2.73448 24.869 2.85172 25.1517 3.08621C25.4414 3.32069 25.6414 3.63103 25.7517 4.01724H25.5449C25.6207 3.63103 25.8138 3.32069 26.1242 3.08621C26.4414 2.85172 26.8242 2.73448 27.2724 2.73448C27.8931 2.73448 28.369 2.91034 28.7 3.26207C29.0311 3.6069 29.1966 4.07241 29.1966 4.65862V8H27.9449V4.98966C27.9449 4.62414 27.8517 4.34828 27.6655 4.16207C27.4862 3.96897 27.2449 3.87241 26.9414 3.87241C26.7483 3.87241 26.569 3.91724 26.4035 4.0069C26.2449 4.09655 26.1173 4.23103 26.0207 4.41034C25.9242 4.58966 25.8759 4.82069 25.8759 5.10345V8H24.6138V4.97931C24.6138 4.62069 24.5242 4.34828 24.3449 4.16207C24.1655 3.97586 23.9276 3.88276 23.6311 3.88276C23.4311 3.88276 23.2483 3.92759 23.0828 4.01724C22.9173 4.1 22.7862 4.23448 22.6897 4.42069C22.5931 4.6 22.5449 4.82759 22.5449 5.10345V8ZM31.9562 8.13448C31.4183 8.13448 30.9907 7.98966 30.6735 7.7C30.3631 7.40345 30.2079 7.01724 30.2079 6.54138C30.2079 6.07241 30.37 5.7 30.6942 5.42414C31.0252 5.14138 31.4942 4.97586 32.101 4.92759L33.6321 4.80345V4.68965C33.6321 4.45517 33.5873 4.26897 33.4976 4.13103C33.4148 3.98621 33.2942 3.88276 33.1355 3.82069C32.9769 3.75172 32.7907 3.71724 32.5769 3.71724C32.2045 3.71724 31.9183 3.7931 31.7183 3.94483C31.5183 4.08965 31.4183 4.29655 31.4183 4.56552H30.3424C30.3424 4.1931 30.4355 3.87241 30.6217 3.60345C30.8148 3.32759 31.0838 3.11379 31.4286 2.96207C31.7804 2.81034 32.1838 2.73448 32.639 2.73448C33.101 2.73448 33.4976 2.81724 33.8286 2.98276C34.1597 3.14138 34.4148 3.38276 34.5942 3.7069C34.7735 4.02414 34.8631 4.42069 34.8631 4.89655V8H33.7562L33.6631 7.24483C33.5528 7.5069 33.339 7.72069 33.0217 7.88621C32.7114 8.05172 32.3562 8.13448 31.9562 8.13448ZM32.3597 7.18276C32.7528 7.18276 33.0631 7.07241 33.2907 6.85172C33.5252 6.63103 33.6424 6.32414 33.6424 5.93103V5.66207L32.5769 5.74483C32.1838 5.77931 31.9045 5.86207 31.739 5.9931C31.5735 6.11724 31.4907 6.28276 31.4907 6.48966C31.4907 6.71724 31.5666 6.88966 31.7183 7.0069C31.87 7.12414 32.0838 7.18276 32.3597 7.18276ZM37.3754 8H36.1237V0.303448H37.3754V8ZM39.9717 8H38.72V0.303448H39.9717V8ZM42.0508 2.88965L43.7163 7.6069L43.0335 8.9L40.7163 2.88965H42.0508ZM40.8508 10.369V9.32414H41.6059C41.7714 9.32414 41.9163 9.30345 42.0404 9.26207C42.1645 9.22759 42.2749 9.15862 42.3714 9.05517C42.4749 8.95172 42.5611 8.8 42.6301 8.6L44.7508 2.88965H46.0542L43.5508 9.13793C43.3645 9.6069 43.1301 9.94828 42.8473 10.1621C42.5645 10.3759 42.2128 10.4828 41.7921 10.4828C41.6128 10.4828 41.4439 10.4724 41.2852 10.4517C41.1335 10.4379 40.9887 10.4103 40.8508 10.369ZM47.3297 8H46.6262L47.7952 0.593103H48.478L50.1021 7.15172L53.7642 0.593103H54.5193L53.34 8H52.6366L53.2262 4.31724C53.3159 3.75862 53.3952 3.3 53.4642 2.94138C53.5331 2.58276 53.5918 2.28966 53.64 2.06207L50.34 8H49.6469L48.1987 2.08276C48.1918 2.22759 48.1642 2.50345 48.1159 2.91034C48.0676 3.31724 47.9987 3.78965 47.909 4.32759L47.3297 8ZM57.1489 8.12414C56.7214 8.12414 56.3455 8.03103 56.0214 7.84483C55.7041 7.65172 55.4558 7.38966 55.2765 7.05862C55.0972 6.72759 55.0076 6.34138 55.0076 5.9C55.0076 5.32759 55.1248 4.81379 55.3593 4.35862C55.6007 3.89655 55.9214 3.53103 56.3214 3.26207C56.7283 2.9931 57.1834 2.85862 57.6869 2.85862C58.1489 2.85862 58.5386 2.96552 58.8558 3.17931C59.18 3.38621 59.4145 3.66897 59.5593 4.02759C59.7041 4.37931 59.7386 4.78276 59.6627 5.23793L59.611 5.57931H55.4007L55.4834 5.08276H59.0007C59.0834 4.5931 58.9972 4.2 58.7421 3.90345C58.4938 3.6 58.1352 3.44828 57.6662 3.44828C57.3007 3.44828 56.9662 3.55862 56.6627 3.77931C56.3593 3.9931 56.1179 4.28276 55.9386 4.64828C55.7662 5.0069 55.68 5.41379 55.68 5.86897C55.68 6.37241 55.8145 6.77586 56.0834 7.07931C56.3524 7.38276 56.711 7.53448 57.1593 7.53448C57.5317 7.53448 57.8627 7.44483 58.1524 7.26552C58.4421 7.08621 58.6489 6.83448 58.7731 6.51034H59.4558C59.3455 6.84828 59.1765 7.13793 58.9489 7.37931C58.7214 7.62069 58.4524 7.8069 58.1421 7.93793C57.8386 8.06207 57.5076 8.12414 57.1489 8.12414Z" fill="#080809"/>
</svg>
