<svg width="32" height="32" viewBox="0 0 32 32" fill="none" xmlns="http://www.w3.org/2000/svg">
<rect width="32" height="32" fill="#556EE6"/>
<path fill-rule="evenodd" clip-rule="evenodd" d="M13.5784 7.58852C13.6201 10.5757 13.6478 10.844 14.0435 12.0912C15.0447 15.2468 17.8397 17.6758 21.1833 18.2958C21.6821 18.3883 22.4137 18.4142 24.5249 18.4142H27.2281V16.0053V13.5964L24.5738 13.566C21.6816 13.5328 21.6958 13.5347 20.7291 13.0468C20.082 12.7202 19.2542 11.8782 18.923 11.2099C18.4739 10.3036 18.4442 10.0605 18.4442 7.28502V4.77193H15.9917H13.5392L13.5784 7.58852ZM4.77194 16V17.188H8.53457H12.2973L13.5376 18.4342L14.7779 19.6805V23.4543V27.2281H16H17.2221V22.9547V18.6813L15.2929 16.7467L13.3638 14.812H9.06786H4.77194V16Z" fill="white"/>
</svg>
